# Blender v2.93.1 OBJ File: 'block.blend'
# www.blender.org
o Cube
v -0.998923 1.038789 0.960765
v -1.069237 -0.959964 0.967057
v -0.928277 1.030012 -1.037968
v -0.998592 -0.968742 -1.031675
v 0.998592 0.968742 1.031675
v 0.928277 -1.030012 1.037968
v 1.069237 0.959964 -0.967057
v 0.998923 -1.038789 -0.960765
vt 0.875000 0.500000
vt 0.625000 0.750000
vt 0.625000 0.500000
vt 0.375000 1.000000
vt 0.375000 0.750000
vt 0.625000 0.000000
vt 0.375000 0.250000
vt 0.375000 0.000000
vt 0.375000 0.500000
vt 0.125000 0.750000
vt 0.125000 0.500000
vt 0.625000 0.250000
vt 0.875000 0.750000
vt 0.625000 1.000000
vn 0.0352 0.9994 -0.0031
vn 0.0353 -0.0044 -0.9994
vn 0.9988 -0.0350 0.0355
vn -0.0352 -0.9994 0.0031
vn -0.9988 0.0350 -0.0355
vn -0.0353 0.0044 0.9994
s off
f 5/1/1 3/2/1 1/3/1
f 3/2/2 8/4/2 4/5/2
f 7/6/3 6/7/3 8/8/3
f 2/9/4 8/10/4 6/11/4
f 1/3/5 4/5/5 2/9/5
f 5/12/6 2/9/6 6/7/6
f 5/1/1 7/13/1 3/2/1
f 3/2/2 7/14/2 8/4/2
f 7/6/3 5/12/3 6/7/3
f 2/9/4 4/5/4 8/10/4
f 1/3/5 3/2/5 4/5/5
f 5/12/6 1/3/6 2/9/6
