# Blender v2.93.1 OBJ File: 'arm.blend'
# www.blender.org
o Cube_Cube.001
v 0.000000 -0.500000 0.000000
v 0.000000 0.500000 0.000000
v 0.000000 -0.500000 3.000000
v 0.000000 0.500000 3.000000
v -1.000000 -0.500000 0.000000
v -1.000000 0.500000 0.000000
v -1.000000 -0.500000 3.000000
v -1.000000 0.500000 3.000000
vt 0.930330 0.622951
vt 0.561476 0.500000
vt 0.930330 0.500000
vt 0.561476 0.622951
vt 0.438524 0.500000
vt 0.438524 0.622951
vt 0.069670 0.500000
vt 0.438524 0.008194
vt 0.561476 0.131146
vt 0.438524 0.131146
vt 0.438524 0.991806
vt 0.069670 0.622951
vt 0.561476 0.008194
vt 0.561476 0.991806
vn 1.0000 0.0000 0.0000
vn 0.0000 0.0000 1.0000
vn -1.0000 0.0000 0.0000
vn 0.0000 0.0000 -1.0000
vn 0.0000 -1.0000 0.0000
vn 0.0000 1.0000 0.0000
s off
f 2/1/1 3/2/1 1/3/1
f 4/4/2 7/5/2 3/2/2
f 8/6/3 5/7/3 7/5/3
f 6/8/4 1/9/4 5/10/4
f 7/5/5 1/9/5 3/2/5
f 4/4/6 6/11/6 8/6/6
f 2/1/1 4/4/1 3/2/1
f 4/4/2 8/6/2 7/5/2
f 8/6/3 6/12/3 5/7/3
f 6/8/4 2/13/4 1/9/4
f 7/5/5 5/10/5 1/9/5
f 4/4/6 2/14/6 6/11/6
